<?xml version="1.0" standalone="no"?>
<!DOCTYPE svg PUBLIC "-//W3C//DTD SVG 20010904//EN"
 "http://www.w3.org/TR/2001/REC-SVG-20010904/DTD/svg10.dtd">
<svg version="1.0" xmlns="http://www.w3.org/2000/svg"
 width="32.000000pt" height="32.000000pt" viewBox="0 0 32.000000 32.000000"
 preserveAspectRatio="xMidYMid meet">

<g transform="translate(0.000000,32.000000) scale(0.100000,-0.100000)"
fill="#000000" stroke="none">
<path d="M0 160 l0 -160 160 0 160 0 0 160 0 160 -160 0 -160 0 0 -160z m165
20 c42 -19 55 -18 55 6 0 9 11 14 30 14 25 0 30 -4 30 -25 0 -30 -41 -75 -67
-75 -10 0 -38 9 -61 20 -44 20 -44 20 -49 0 -4 -14 -14 -20 -34 -20 -24 0 -29
4 -29 25 0 30 41 75 67 75 10 -1 36 -9 58 -20z"/>
</g>
</svg>
